<svg width="562" height="89" viewBox="0 0 562 89" fill="none" xmlns="http://www.w3.org/2000/svg">
<path d="M558 0H4C1.79086 0 0 1.79086 0 4V83.3519C0 85.561 1.79086 87.3519 4 87.3519H558C560.209 87.3519 562 85.561 562 83.3519V4C562 1.79086 560.209 0 558 0Z" fill="#F8F9FA"/>
<path d="M0 4C0 1.79087 1.80515 0 4.01429 0V87.3519C1.80515 87.3519 0 85.561 0 83.3519V4Z" fill="#E9ECEF"/>
<path d="M519.85 0H558C560.209 0 562 1.79086 562 4V85C562 87.2091 560.209 89 558 89H519.85V0Z" fill="#F8F9FA"/>
<path d="M345.229 24.7222H15.0535V37.9074H345.229V24.7222Z" fill="#E9ECEF"/>
<path d="M91.3249 51.0925H15.0535V64.2777H91.3249V51.0925Z" fill="#E9ECEF"/>
</svg>
